<svg width="503" height="234" viewBox="0 0 503 234" fill="none" xmlns="http://www.w3.org/2000/svg">
<path d="M256.432 118.502V73.7017H281.648V82.5337H265.776V91.4297H277.744V100.326H265.776V109.67H281.648V118.502H256.432ZM285.697 118.502V73.7017H295.041V109.67H310.913V118.502H285.697ZM314.149 118.502V73.7017H339.365V82.5337H323.493V91.4297H335.461V100.326H323.493V109.67H339.365V118.502H314.149ZM347.958 118.502L341.174 73.7017H350.454L353.718 100.39L357.046 73.7017H366.39L359.67 118.502H347.958ZM366.441 118.502L373.161 73.7017H384.873L391.657 118.502H382.377L381.737 112.358H376.489L375.785 118.502H366.441ZM378.217 96.8697L377.449 103.462H380.777L380.073 96.8697L379.753 87.7177H378.601L378.217 96.8697ZM398.018 118.502V82.5337H390.018V73.7017H415.234V82.5337H407.234V118.502H398.018ZM417.112 118.502V109.67H425.112V82.5337H417.112V73.7017H442.328V82.5337H434.392V109.67H442.328V118.502H417.112ZM457.622 119.526C455.148 119.526 452.95 118.886 451.03 117.606C449.153 116.283 447.66 114.47 446.55 112.166C445.484 109.862 444.95 107.216 444.95 104.23V87.9097C444.95 84.923 445.484 82.299 446.55 80.0377C447.66 77.7337 449.153 75.9417 451.03 74.6617C452.95 73.339 455.148 72.6777 457.622 72.6777C460.097 72.6777 462.273 73.339 464.15 74.6617C466.07 75.9417 467.564 77.7337 468.63 80.0377C469.74 82.299 470.294 84.923 470.294 87.9097V104.23C470.294 107.216 469.74 109.862 468.63 112.166C467.564 114.47 466.07 116.283 464.15 117.606C462.273 118.886 460.097 119.526 457.622 119.526ZM457.622 110.566C459.756 110.566 460.822 108.731 460.822 105.062V87.1417C460.822 83.4723 459.756 81.6377 457.622 81.6377C455.489 81.6377 454.422 83.4723 454.422 87.1417V105.062C454.422 108.731 455.489 110.566 457.622 110.566ZM474.802 118.502V73.7017H484.082L491.25 97.3177V73.7017H500.018V118.502H490.738L483.57 94.8857V118.502H474.802ZM254.256 174.502L260.976 129.702H272.688L279.472 174.502H270.192L269.552 168.358H264.304L263.6 174.502H254.256ZM266.032 152.87L265.264 159.462H268.592L267.888 152.87L267.568 143.718H266.416L266.032 152.87ZM285.833 174.502V138.534H277.833V129.702H303.049V138.534H295.049V174.502H285.833ZM306.399 174.502V129.702H315.679V146.598H322.271V129.702H331.615V174.502H322.271V155.43H315.679V174.502H306.399ZM337.102 174.502V129.702H346.446V165.67H362.318V174.502H337.102ZM365.554 174.502V129.702H390.77V138.534H374.898V147.43H386.866V156.326H374.898V165.67H390.77V174.502H365.554ZM400.643 174.502V138.534H392.643V129.702H417.859V138.534H409.859V174.502H400.643ZM419.737 174.502V165.67H427.737V138.534H419.737V129.702H444.953V138.534H437.017V165.67H444.953V174.502H419.737ZM460.183 175.526C457.709 175.526 455.511 174.886 453.591 173.606C451.714 172.283 450.242 170.47 449.175 168.166C448.109 165.862 447.575 163.216 447.575 160.23V143.91C447.575 140.923 448.109 138.299 449.175 136.038C450.242 133.734 451.714 131.942 453.591 130.662C455.511 129.339 457.709 128.678 460.183 128.678C462.658 128.678 464.834 129.339 466.711 130.662C468.631 131.942 470.125 133.734 471.191 136.038C472.258 138.299 472.791 140.923 472.791 143.91V148.07H463.319V143.142C463.319 139.472 462.274 137.638 460.183 137.638C458.093 137.638 457.047 139.472 457.047 143.142V161.062C457.047 164.731 458.093 166.566 460.183 166.566C462.274 166.566 463.319 164.731 463.319 161.062V156.134H472.791V160.23C472.791 163.216 472.258 165.862 471.191 168.166C470.125 170.47 468.631 172.283 466.711 173.606C464.834 174.886 462.658 175.526 460.183 175.526ZM488.316 175.526C484.433 175.526 481.319 174.267 478.972 171.75C476.668 169.19 475.516 165.563 475.516 160.87H484.284C484.284 163.088 484.668 164.71 485.436 165.734C486.204 166.715 487.185 167.206 488.38 167.206C489.489 167.206 490.343 166.886 490.94 166.246C491.537 165.563 491.836 164.667 491.836 163.558C491.836 162.278 491.516 161.168 490.876 160.23C490.236 159.291 489.404 158.416 488.38 157.606C487.399 156.795 486.332 155.963 485.18 155.11C483.729 154 482.257 152.827 480.764 151.59C479.313 150.352 478.097 148.88 477.116 147.174C476.135 145.424 475.644 143.312 475.644 140.838C475.644 138.363 476.156 136.23 477.18 134.438C478.247 132.603 479.676 131.195 481.468 130.214C483.303 129.19 485.372 128.678 487.676 128.678C490.193 128.678 492.391 129.254 494.268 130.406C496.188 131.558 497.66 133.2 498.684 135.334C499.751 137.424 500.284 139.878 500.284 142.694H491.516C491.516 140.816 491.175 139.43 490.492 138.534C489.852 137.595 488.956 137.126 487.804 137.126C486.823 137.126 486.033 137.446 485.436 138.086C484.839 138.726 484.54 139.558 484.54 140.582C484.54 142.16 485.159 143.504 486.396 144.614C487.676 145.723 489.276 146.982 491.196 148.39C492.775 149.542 494.289 150.736 495.74 151.974C497.191 153.211 498.385 154.683 499.324 156.39C500.263 158.096 500.732 160.23 500.732 162.79C500.732 166.587 499.601 169.659 497.34 172.006C495.121 174.352 492.113 175.526 488.316 175.526Z" fill="#005F79"/>
<path d="M51.0935 67.7198C65.6214 62.3477 82.5181 67.0503 99.3416 78.0623C103.964 81.0881 107.596 86.9299 110.475 93.6016C113.382 100.342 115.649 108.239 117.378 115.729C119.11 123.229 120.316 130.379 121.089 135.649C121.475 138.286 121.753 140.456 121.936 141.969C122.027 142.726 122.095 143.318 122.139 143.722C122.161 143.925 122.178 144.08 122.189 144.186C122.194 144.239 122.199 144.279 122.201 144.306C122.203 144.32 122.203 144.33 122.204 144.338C122.205 144.341 122.205 144.344 122.206 144.346C122.206 144.347 122.206 144.348 122.206 144.348C122.206 144.349 122.206 144.349 120.407 144.531C120.76 146.31 120.759 146.31 120.759 146.31L120.757 146.311C120.756 146.312 120.753 146.312 120.75 146.313C120.743 146.314 120.734 146.316 120.722 146.318C120.698 146.323 120.661 146.33 120.613 146.34C120.518 146.358 120.377 146.386 120.192 146.422C119.823 146.493 119.28 146.598 118.582 146.729C117.185 146.992 115.166 147.363 112.672 147.796C107.684 148.662 100.789 149.78 93.1668 150.783C78.0015 152.779 59.6823 154.362 47.8229 152.492C41.4159 151.481 35.3242 146.831 29.8902 140.859C24.4105 134.836 19.3639 127.204 15.0849 119.758C10.7994 112.301 7.2484 104.968 4.77026 99.5049C3.53038 96.7714 2.55702 94.5013 1.89293 92.9128C1.56094 92.1186 1.30628 91.4944 1.13388 91.0673C1.04766 90.8538 0.981917 90.6893 0.937586 90.5776C0.915468 90.522 0.898885 90.4791 0.887453 90.4501C0.881767 90.4357 0.877038 90.4244 0.874037 90.4168C0.8726 90.4131 0.871311 90.4103 0.870507 90.4083C0.870094 90.4072 0.870007 90.406 0.869801 90.4054C0.874223 90.4029 0.96031 90.3684 2.55171 89.7414L0.869095 90.4047L0.228668 88.767L1.83997 88.0739L1.84139 88.0732C1.84248 88.0727 1.8442 88.0719 1.84633 88.071C1.85065 88.0692 1.85694 88.0662 1.86539 88.0625C1.88256 88.0552 1.90854 88.0445 1.94236 88.0299C2.00997 88.0009 2.11025 87.9574 2.24174 87.901C2.50496 87.7879 2.89304 87.6219 3.39126 87.4084C4.38768 86.9814 5.82626 86.3657 7.59534 85.6112C11.1334 84.1023 15.9943 82.0374 21.2851 79.8135C31.8523 75.3717 44.1811 70.2759 51.0935 67.7198ZM97.3673 81.1019C80.9311 70.3433 65.2908 66.3366 52.3433 71.1243C45.518 73.6482 33.2634 78.7127 22.6817 83.1606C17.3982 85.3815 12.5431 87.4433 9.00894 88.9505C7.29149 89.683 5.8861 90.2842 4.89524 90.7088C4.99517 90.951 5.10557 91.2188 5.2271 91.5096C5.87915 93.0693 6.83782 95.3052 8.06065 98.0011C10.5082 103.397 14.007 110.619 18.2171 117.946C22.4338 125.283 27.329 132.663 32.5593 138.412C37.8352 144.211 43.222 148.093 48.3835 148.907C59.6614 150.686 77.4943 149.186 92.6965 147.185C100.258 146.19 107.101 145.081 112.055 144.221C114.531 143.79 116.534 143.423 117.917 143.163C118.096 143.129 118.265 143.095 118.423 143.065C118.399 142.863 118.376 142.642 118.347 142.405C118.168 140.919 117.893 138.78 117.511 136.178C116.748 130.971 115.559 123.924 113.856 116.548C112.151 109.162 109.943 101.501 107.157 95.0438C104.342 88.5173 101.06 83.5189 97.3673 81.1019ZM122.37 145.989L120.76 146.31L120.407 144.531L122.206 144.35L122.37 145.989Z" fill="#46AFE3"/>
<path d="M50.8382 70.3385C37.0807 75.389 1.60104 90.5402 1.60104 90.5402C1.60104 90.5402 24.0474 147.517 47.2178 151.145C70.3882 154.773 119.625 145.013 119.625 145.013C119.625 145.013 114.195 91.2618 97.541 80.4395C80.8873 69.6172 64.5956 65.288 50.8382 70.3385Z" fill="#46AFE3"/>
<path d="M126.349 101.545C126.349 89.3214 133.807 79.1323 143.331 73.7281C152.962 68.2633 165.738 67.1076 176.827 74.225C185.227 79.6165 190.284 82.5884 194.766 83.8344C198.55 84.886 202.307 84.7905 208.249 82.2751C212.798 80.3497 214.646 77.167 215.51 74.2123C215.964 72.6612 216.122 71.2009 216.161 70.1276C216.181 69.6008 216.17 69.1952 216.159 68.9549C216.153 68.8358 216.147 68.7599 216.144 68.733L216.147 68.7598C216.148 68.7663 216.149 68.7737 216.15 68.7818C216.151 68.7858 216.151 68.79 216.152 68.7945L216.152 68.8015C216.154 68.805 213.92 55.9463 219.733 53.4131C224.722 51.2395 230.559 63.0835 231.328 66.9264C231.927 69.9228 231.954 74.9264 230.861 78.6654C228.999 85.0295 224.488 92.7037 214.503 96.9305C205.911 100.567 198.403 101.377 190.469 99.1712C183.233 97.16 176.117 92.713 168.166 87.6096C162.904 84.2322 156.603 84.524 151.245 87.5636C145.781 90.6641 142.337 96.0365 142.337 101.545C142.337 107.135 145.485 111.32 150.847 117.863C155.505 123.548 162.881 132.077 161.547 144.043C160.564 152.848 153.211 157.281 147.033 159.28C140.556 161.376 132.559 161.888 124.652 161.377C116.638 160.86 108.12 159.254 100.372 156.667C92.7288 154.115 85.252 150.416 79.8264 145.357L90.7528 133.732C93.8662 136.635 98.9708 139.405 105.453 141.569C111.831 143.698 118.984 145.055 125.686 145.488C132.495 145.927 138.26 145.376 142.093 144.135C143.993 143.521 145.003 142.869 145.452 142.46C145.567 142.355 145.629 142.279 145.66 142.238C146.121 137.941 143.866 134.528 138.461 127.931C133.74 122.17 126.349 113.689 126.349 101.545Z" fill="#46AFE3"/>
<path d="M165.444 141.831L177.897 144.543L170.95 176.436C170.48 178.595 168.349 179.963 166.19 179.493L161.554 178.483C159.396 178.013 158.027 175.882 158.497 173.724L165.444 141.831Z" fill="#E36D43"/>
<path d="M177.782 55.9446L202.461 61.32C213.271 63.6746 220.024 74.8107 217.545 86.1933L207.804 130.912C205.895 139.678 177.669 146.495 177.669 146.495L170.861 145.012L164.904 143.714C164.904 143.714 142.07 125.776 143.98 117.01L153.72 72.2914C156.199 60.9088 166.972 53.5901 177.782 55.9446Z" fill="#FF9169"/>
<path d="M85.7183 150.098C82.4501 157.089 81.5355 162.843 81.8257 166.878C82.1227 171.005 83.5524 172.586 84.1335 173.003C84.4267 173.213 85.5623 173.95 88.5822 172.67C91.8177 171.299 96.5484 167.759 101.951 160.304L116.881 171.049C110.313 180.111 103.165 186.435 95.7883 189.56C88.1962 192.777 79.9853 192.642 73.3722 187.897C67.0472 183.359 64.011 175.901 63.4562 168.191C62.8947 160.388 64.7426 151.507 69.0249 142.347L85.7183 150.098Z" fill="#46AFE3"/>
<path d="M63.151 153.423C52.9716 166.022 55.671 171.807 56.4522 172.749C57.6192 174.156 63.3412 177.179 75.0864 171.721L82.7037 188.112C68.2107 194.847 51.6487 195.271 42.5396 184.287C33.045 172.839 37.4765 156.44 49.092 142.064L63.151 153.423Z" fill="#46AFE3"/>
<path d="M44.385 151.42C35.8456 155.193 30.8719 159.169 28.4371 162.273C27.2459 163.792 26.8251 164.891 26.6938 165.488C26.5793 166.009 26.6654 166.181 26.6832 166.223C26.7316 166.336 27.6824 168.149 32.7224 169.357C37.5806 170.522 45.0259 170.745 55.1436 168.806L58.5443 186.558C46.7922 188.809 36.6145 188.877 28.5094 186.934C20.5887 185.035 13.2335 180.79 10.0471 173.288C6.71406 165.44 9.30684 157.378 14.2147 151.119C19.0987 144.892 26.926 139.374 37.081 134.887L44.385 151.42Z" fill="#46AFE3"/>
<path d="M107.617 113.419C109.454 120.712 108.671 127.195 105.869 127.901C103.066 128.607 99.3061 123.267 97.4695 115.975C95.633 108.682 96.4158 102.198 99.218 101.493C102.02 100.787 105.781 106.127 107.617 113.419Z" fill="#005F79"/>
<path d="M128.743 135C140.802 134.954 150.612 144.695 150.653 156.753C150.693 168.811 140.948 178.618 128.89 178.653C116.839 178.688 107.04 168.951 107 156.9C106.959 144.849 116.693 135.046 128.743 135Z" fill="#FF9169"/>
<path d="M127.172 161.026C127.914 161.014 128.438 161.086 129.133 161.384C130.441 161.946 131.431 163.167 131.585 164.601C131.693 165.561 131.407 166.524 130.793 167.27C130.071 168.148 129.109 168.558 128.001 168.67C126.788 168.725 125.733 168.392 124.812 167.583C124.041 166.903 123.568 165.947 123.496 164.921C123.438 163.978 123.755 163.051 124.377 162.34C125.096 161.526 126.096 161.089 127.172 161.026Z" fill="#E36D42"/>
<path d="M142.197 155.176C143.012 155.143 143.68 155.351 144.332 155.848C146.905 157.812 146.154 162.899 142.711 163.314C140.264 163.439 138.849 161.231 138.965 158.979C139.06 157.143 140.26 155.348 142.197 155.176Z" fill="#E36D42"/>
<path d="M128.752 143.914C129.897 143.801 131.044 144.108 131.98 144.777C132.196 144.933 132.395 145.091 132.584 145.279C134.012 146.695 134.089 149.049 132.329 150.232C131.758 150.616 131.271 150.763 130.592 150.869L130.564 150.874C129.477 151.042 128.119 150.629 127.249 149.975C124.58 147.971 125.284 144.371 128.752 143.914Z" fill="#E36D42"/>
<path d="M114.262 150.781C116.542 150.584 117.401 152.773 117.213 154.707C117.049 156.404 115.837 158.516 114.002 158.759C113.387 158.818 112.814 158.726 112.31 158.342C109.817 156.444 111.237 151.243 114.262 150.781Z" fill="#E36D42"/>
<path d="M138.894 140.619C139.771 140.582 140.363 140.797 141.133 141.256C142.521 142.112 143.834 143.53 144.271 145.13C144.5 145.971 144.334 146.818 143.369 147.027C140.022 147.333 135.978 141.251 138.894 140.619Z" fill="#E36D42"/>
<path d="M140.888 169.681C142.81 169.557 142.477 171.159 141.647 172.222C140.524 173.66 138.672 174.949 136.844 175.207C134.8 175.325 135.145 173.766 136.056 172.622C137.197 171.188 139.04 169.915 140.888 169.681Z" fill="#E36D42"/>
<path d="M114.063 167.993C117.029 167.848 121.692 173.392 119.102 173.883C116.259 174.133 111.406 168.55 114.063 167.993Z" fill="#E36D42"/>
<path d="M121.866 137.911C123.422 137.699 123.941 138.679 122.994 139.882C121.817 141.38 119.757 142.563 117.877 142.856C117.439 142.89 116.917 142.922 116.535 142.661C115.926 142.243 116.318 141.379 116.675 140.92C117.875 139.374 119.94 138.212 121.866 137.911Z" fill="#E36D42"/>
<path d="M222.731 157.898C217.131 152.383 209.753 152.625 208.282 153.018C206.811 153.412 200.954 155.872 197.314 160.402C190.558 168.81 182.149 187.061 159.082 190.601C136.642 194.044 114.249 188.685 102.031 176.092C90.1047 163.801 87.9459 144.367 83.7956 132.532L98.1297 128.477C101.946 139.36 103.231 151.507 112.875 161.447C122.228 171.086 139.535 178.61 155.945 176.092C171.726 173.671 175.607 162.9 185.161 151.01C189.676 145.39 195.73 139.728 205.496 138.461C214.883 137.243 238.519 146.033 237.92 162.214C237.321 178.395 228.331 163.413 222.731 157.898Z" fill="#46AFE3"/>
</svg>
