<svg width="370" height="356" viewBox="0 0 370 356" fill="none" xmlns="http://www.w3.org/2000/svg">
<g clip-path="url(#clip0_10_1954)">
<rect width="370" height="356" fill="#397999"/>
<path d="M-206 177.444L832 177.444" stroke="white" stroke-width="7"/>
<path d="M-206 215.889L832 215.889" stroke="white" stroke-width="7"/>
<path d="M-206 254.333L832 254.333" stroke="white" stroke-width="7"/>
<path d="M-206 292.778H832" stroke="white" stroke-width="7"/>
<path d="M-206 331.222H832" stroke="white" stroke-width="7"/>
<path d="M140 139L140 485" stroke="white" stroke-width="7"/>
<path d="M101.555 139L101.555 485" stroke="white" stroke-width="7"/>
<path d="M63.1113 139L63.1113 485" stroke="white" stroke-width="7"/>
<path d="M24.6665 139L24.6664 485" stroke="white" stroke-width="7"/>
<path d="M370.666 139L370.666 485" stroke="white" stroke-width="7"/>
<path d="M332.222 139L332.222 485" stroke="white" stroke-width="7"/>
<path d="M293.778 139L293.778 485" stroke="white" stroke-width="7"/>
<path d="M255.333 139L255.333 485" stroke="white" stroke-width="7"/>
<path d="M216.889 139L216.889 485" stroke="white" stroke-width="7"/>
<path d="M178.445 139L178.445 485" stroke="white" stroke-width="7"/>
<path d="M-203 134L835 134" stroke="white" stroke-width="23"/>
</g>
<defs>
<clipPath id="clip0_10_1954">
<rect width="370" height="356" fill="white"/>
</clipPath>
</defs>
</svg>
