<svg width="370" height="356" viewBox="0 0 370 356" fill="none" xmlns="http://www.w3.org/2000/svg">
<g clip-path="url(#clip0_10_1931)">
<rect width="370" height="356" fill="#FFBB91"/>
<path d="M53 203.309L718.309 -462L1287.09 106.782L621.782 772.091L53 203.309Z" fill="#46AFE3"/>
<path d="M718.309 -487.456L1312.55 106.783L621.782 797.547L27.5441 203.309L718.309 -487.456ZM621.782 746.636L1261.64 106.783L718.309 -436.544L78.4558 203.309L621.782 746.636Z" fill="white"/>
<ellipse opacity="0.58" cx="96.5" cy="79" rx="96.5" ry="79" transform="matrix(1 0 0 -1 212 326)" fill="#B7C7D5" style="mix-blend-mode:multiply"/>
<path d="M266.288 98.0006C311.367 97.8292 348.045 134.245 348.195 179.324C348.347 224.403 311.916 261.065 266.836 261.196C221.785 261.327 185.152 224.924 185 179.872C184.849 134.821 221.237 98.172 266.288 98.0006Z" fill="#FFBB91"/>
<g style="mix-blend-mode:multiply">
<path d="M260.413 195.297C263.186 195.251 265.145 195.524 267.743 196.638C272.634 198.736 276.334 203.303 276.91 208.664C277.314 212.253 276.246 215.852 273.949 218.64C271.249 221.921 267.653 223.458 263.512 223.874C258.977 224.079 255.035 222.837 251.589 219.813C248.708 217.268 246.941 213.694 246.669 209.859C246.455 206.334 247.639 202.867 249.964 200.209C252.653 197.167 256.392 195.534 260.413 195.297Z" fill="#F0B997" fill-opacity="0.72"/>
<path d="M316.583 173.43C319.63 173.304 322.127 174.081 324.564 175.941C334.183 183.281 331.376 202.301 318.505 203.85C309.358 204.317 304.067 196.065 304.501 187.644C304.855 180.78 309.342 174.071 316.583 173.43Z" fill="#F0B997" fill-opacity="0.72"/>
<path d="M266.321 131.323C270.601 130.903 274.889 132.05 278.389 134.549C279.196 135.135 279.938 135.725 280.645 136.426C285.986 141.722 286.274 150.521 279.692 154.946C277.557 156.381 275.738 156.931 273.197 157.327L273.094 157.343C269.032 157.971 263.955 156.427 260.701 153.984C250.724 146.493 253.356 133.032 266.321 131.323Z" fill="#F0B997" fill-opacity="0.72"/>
<path d="M212.15 156.998C220.672 156.261 223.886 164.442 223.184 171.674C222.568 178.02 218.039 185.913 211.177 186.822C208.878 187.043 206.737 186.699 204.853 185.264C195.532 178.166 200.841 158.726 212.15 156.998Z" fill="#F0B997" fill-opacity="0.72"/>
<path d="M304.236 119.007C307.515 118.868 309.727 119.671 312.607 121.388C317.794 124.589 322.703 129.888 324.336 135.873C325.194 139.015 324.573 142.181 320.966 142.963C308.452 144.106 293.333 121.368 304.236 119.007Z" fill="#F0B997" fill-opacity="0.72"/>
<path d="M311.691 227.654C318.875 227.192 317.633 233.179 314.529 237.153C310.329 242.531 303.406 247.35 296.571 248.315C288.932 248.754 290.222 242.924 293.625 238.648C297.893 233.288 304.781 228.529 311.691 227.654Z" fill="#F0B997" fill-opacity="0.72"/>
<path d="M211.404 221.345C222.494 220.8 239.925 241.527 230.245 243.362C219.614 244.298 201.473 223.425 211.404 221.345Z" fill="#F0B997" fill-opacity="0.72"/>
<path d="M240.575 108.882C246.395 108.088 248.332 111.753 244.795 116.252C240.392 121.851 232.693 126.274 225.666 127.369C224.027 127.495 222.074 127.617 220.647 126.639C218.369 125.078 219.837 121.848 221.17 120.131C225.658 114.351 233.376 110.006 240.575 108.882Z" fill="#F0B997" fill-opacity="0.72"/>
</g>
</g>
<defs>
<clipPath id="clip0_10_1931">
<rect width="370" height="356" fill="white"/>
</clipPath>
</defs>
</svg>
