<svg width="370" height="356" viewBox="0 0 370 356" fill="none" xmlns="http://www.w3.org/2000/svg">
<g clip-path="url(#clip0_10_1954)">
<rect width="370" height="356" fill="#46AFE3"/>
<path d="M371 173.431L329.793 175.29V217.941L371 216.674V232.682L329.793 233.949V284.93L371 284.411V300.412L329.793 300.931V352.029L371 351.415V357H0V356.94L44.4727 356.278L44.4717 304.518L0 305.076V289.073L44.4717 288.516V242.724L0 244.091V228.083L44.4717 226.716V188.162L0 190.168V139.942L371 118.368V173.431ZM58.2607 304.344V356.073L127.771 355.038L124.668 354.309V303.509L58.2607 304.344ZM138.456 303.336V354.879L187.764 354.145V302.716L138.456 303.336ZM201.181 302.548V353.945L253.599 353.164V301.889L201.181 302.548ZM267.017 301.72V352.965L316.376 352.229V301.1L267.017 301.72ZM58.2598 242.3L58.2607 288.342L124.668 287.508V240.257L58.2598 242.3ZM138.456 239.833V287.334L187.764 286.715V238.316L138.456 239.833ZM201.181 237.904V286.546L253.599 285.887L253.6 236.292L201.181 237.904ZM267.017 235.879V285.719L316.376 285.098V234.361L267.017 235.879ZM58.2598 187.54V226.292L124.668 224.25V184.544L58.2598 187.54ZM138.456 183.922V223.825L187.764 222.31V181.697L138.456 183.922ZM201.181 181.092V221.896L253.6 220.284V178.728L201.181 181.092ZM267.017 178.122V219.872L316.376 218.354V175.896L267.017 178.122Z" fill="white"/>
</g>
<defs>
<clipPath id="clip0_10_1954">
<rect width="370" height="356" fill="white"/>
</clipPath>
</defs>
</svg>
