<svg width="370" height="356" viewBox="0 0 370 356" fill="none" xmlns="http://www.w3.org/2000/svg">
<g clip-path="url(#clip0_10_1931)">
<rect width="370" height="356" fill="#FFC6A3"/>
<rect x="53" y="203.309" width="940.889" height="804.38" transform="rotate(-45 53 203.309)" fill="#397999" stroke="white" stroke-width="36"/>
<ellipse opacity="0.58" cx="91" cy="80.5" rx="91" ry="80.5" transform="matrix(1 0 0 -1 235 305)" fill="#B7C7D5" fill-opacity="0.69" style="mix-blend-mode:multiply"/>
<path fill-rule="evenodd" clip-rule="evenodd" d="M326.957 224.795C338.685 207.721 342.458 185.505 335.213 164.409C330.271 150.021 320.965 138.37 309.282 130.428C306.474 131.778 301.123 131.295 295.626 128.942C290.158 126.602 286.127 123.088 285.139 120.134C276.091 118.218 266.56 118.136 257.097 120.158C258.597 120.624 259.674 121.442 260.113 122.592C261.353 125.84 257.034 130.507 250.465 133.016C243.896 135.525 237.565 134.925 236.324 131.677C235.902 130.57 236.124 129.299 236.861 128.005C228.611 132.839 221.653 139.277 216.257 146.764C216.756 149.807 215.664 154.447 213.119 159.053C211.104 162.7 208.587 165.587 206.216 167.226C202.356 180.256 202.37 194.57 207.121 208.401C214.256 229.177 230.489 244.244 249.839 250.681C252.063 249.108 256.505 248.006 261.632 247.954C269.011 247.878 275.015 250.005 275.042 252.704C275.047 253.171 274.873 253.625 274.542 254.056C280.741 253.744 286.999 252.568 293.163 250.451C298.759 248.529 303.941 245.947 308.651 242.822C308.103 239.774 310.63 234.816 315.156 230.587C319.28 226.733 323.897 224.576 326.957 224.795ZM313.062 197.537C313.992 195.252 314.249 192.638 313.624 190.126C312.834 186.946 310.805 184.619 308.279 183.57C307.349 185.855 307.093 188.469 307.717 190.981C308.507 194.161 310.537 196.488 313.062 197.537ZM250.524 222.993C245.918 223.219 241.214 220.885 238.868 216.814C237.716 214.815 237.298 212.684 237.526 210.677C242.131 210.451 246.835 212.785 249.181 216.856C250.333 218.855 250.752 220.986 250.524 222.993ZM210.81 204.454C211.106 202.14 211.145 199.484 210.865 196.806C210.56 193.9 209.929 191.443 209.124 189.703C208.048 192.219 208.551 197.919 210.461 203.483C210.575 203.813 210.691 204.137 210.81 204.454ZM293.685 158.323C291.524 157.193 289.656 155.529 288.405 153.443C285.376 148.392 287.023 142.643 292.021 140.037C294.182 141.167 296.05 142.831 297.301 144.917C300.331 149.968 298.683 155.717 293.685 158.323Z" fill="#FFB688"/>
<path d="M247.678 162.174C248.24 168.045 244.073 174.531 238.369 176.66C232.665 178.79 227.585 175.757 227.022 169.885C226.46 164.014 230.628 157.528 236.332 155.399C242.036 153.269 247.116 156.303 247.678 162.174Z" fill="#F29566"/>
<path fill-rule="evenodd" clip-rule="evenodd" d="M308.279 183.57C307.35 185.855 307.093 188.469 307.717 190.981C308.507 194.161 310.537 196.488 313.062 197.537C311.938 200.3 309.831 202.583 307.106 203.626C302.126 205.533 296.972 202.58 295.593 197.031C294.214 191.481 297.133 185.437 302.112 183.53C304.238 182.716 306.397 182.788 308.279 183.57Z" fill="#F29566"/>
<path fill-rule="evenodd" clip-rule="evenodd" d="M292.021 140.037C287.023 142.643 285.376 148.392 288.405 153.443C289.656 155.529 291.524 157.193 293.685 158.323C293.305 158.521 292.905 158.701 292.487 158.861C286.569 161.128 279.129 158.559 275.869 153.124C272.61 147.69 274.765 141.447 280.683 139.18C284.329 137.784 288.553 138.223 292.021 140.037Z" fill="#F29566"/>
<path d="M294.326 223.307C299.896 224.598 301.555 229.295 298.031 233.798C294.507 238.301 287.135 240.905 281.564 239.614C275.994 238.324 274.335 233.627 277.859 229.124C281.383 224.621 288.755 222.016 294.326 223.307Z" fill="#F29566"/>
<path fill-rule="evenodd" clip-rule="evenodd" d="M254.565 222.079C260.186 219.699 262.272 213.481 259.224 208.192C256.176 202.903 249.148 200.545 243.527 202.926C240.03 204.407 237.901 207.373 237.526 210.677C242.131 210.451 246.835 212.785 249.181 216.856C250.333 218.855 250.752 220.986 250.524 222.992C251.901 222.925 253.27 222.628 254.565 222.079Z" fill="#F29566"/>
<path fill-rule="evenodd" clip-rule="evenodd" d="M217.659 211.949C219.439 210.232 219.102 203.66 216.907 197.268C214.712 190.876 211.489 187.086 209.71 188.802C209.479 189.024 209.284 189.328 209.124 189.703C209.929 191.443 210.56 193.9 210.865 196.806C211.145 199.484 211.106 202.14 210.81 204.454C212.986 210.252 215.971 213.576 217.659 211.949Z" fill="#F29566"/>
<path d="M321.643 163.664C323.838 170.056 327.611 175.449 330.07 175.709C332.528 175.97 332.742 170.999 330.547 164.607C328.352 158.216 324.579 152.823 322.12 152.562C319.661 152.302 319.448 157.273 321.643 163.664Z" fill="#F29566"/>
<path d="M285.139 120.134C293.789 121.966 301.998 125.476 309.282 130.428C306.474 131.778 301.123 131.295 295.626 128.942C290.158 126.602 286.127 123.088 285.139 120.134Z" fill="#F29566"/>
<path d="M274.542 254.056C266.061 254.484 257.693 253.293 249.839 250.68C252.063 249.107 256.505 248.006 261.632 247.953C269.011 247.878 275.015 250.005 275.042 252.704C275.047 253.171 274.873 253.625 274.542 254.056Z" fill="#F29566"/>
<path d="M315.156 230.587C319.28 226.733 323.897 224.576 326.957 224.795C322.131 231.82 315.958 237.974 308.651 242.822C308.102 239.774 310.63 234.816 315.156 230.587Z" fill="#F29566"/>
<path d="M206.216 167.226C208.388 159.894 211.786 152.969 216.257 146.764C216.756 149.807 215.664 154.447 213.119 159.053C211.104 162.7 208.587 165.587 206.216 167.226Z" fill="#F29566"/>
<path d="M260.113 122.592C261.353 125.84 257.034 130.507 250.465 133.016C243.896 135.525 237.565 134.925 236.324 131.677C235.902 130.57 236.124 129.299 236.861 128.005C240.694 125.759 244.807 123.858 249.171 122.359C251.8 121.457 254.446 120.725 257.097 120.158C258.597 120.624 259.674 121.442 260.113 122.592Z" fill="#F29566"/>
</g>
<defs>
<clipPath id="clip0_10_1931">
<rect width="370" height="356" fill="white"/>
</clipPath>
</defs>
</svg>
